# xmcd
#
# Track frame offsets: 
#        150
#        13527
#        23967
#        36098
#        45332
#        61269
#        79862
#        93159
#        110574
#        130180
#        150113
#        164823
#        176587
#        185933
#        196447
#        225461
#        251709
#        268924
#        282522
#        292835
#
# Disc length: 4026 seconds
#
# Revision: 1
# Processed by: cddbd v1.5.2PL0 Copyright (c) Steve Scherf et al.
# Submitted via: ExactAudioCopyFreeDBPlugin 1.0
#
DISCID=140fb814
DTITLE=Hear Me Howling Blues Ballads and Beyond - Hear Me Howlin  CD 2
DYEAR=2010
DGENRE=Blues
TTITLE0=Country Joe And The Fish  - I Feel Like I`m Fixin' To Die Rag 
TTITLE0=(Unreleased)
TTITLE1=Toni Brown  - You Turned Your Back (1st Time on CD)
TTITLE2=Toni Brown  - How Could I Stand It (1st Time on CD)
TTITLE3=Toni Brown  - Don`t Forget Me, Love (1st Time on CD)
TTITLE4=Crabgrass  - Charles Giteau (1st Time on CD)
TTITLE5=The Joy Of Cooking  - Midnight Blues (Unreleased)
TTITLE6=T.A. Talbott  - Depression Gone From Me (1st Time on CD)
TTITLE7=T.A. Talbott  - Mr. Brakeman (Unreleased)
TTITLE8=Debbie Green  - Who`s Going To Be My Man? (Unreleased)
TTITLE9=Bob Neuwirth  - Come See (Unreleased)
TTITLE10=Janet Smith  - Lady Gay (1st Time on CD)
TTITLE11=Merritt Herring  - Talking Protest Blues (1st Time on CD)
TTITLE12=Alice Stuart  - Black Jack David
TTITLE13=Perry Lederrman  - Eventually (1st Time on CD)
TTITLE14=Perry Lederman  - Impressions Of John Henry (1st Time on CD)
TTITLE15=Barbara Dane  - Deportees
TTITLE16=Hackberry Ramblers  - Big Texas ( Grand Texas ) (Unreleased)
TTITLE17=Hackberry Ramblers  - Jolie Blonde (Unreleased)
TTITLE18=Hackberry Ramblers  - Turtle Tail (Unreleased)
TTITLE19=The Fondettes  - The Beatles Are In Town (1st Time on CD)
EXTD=YEAR: 2010
EXTT0=
EXTT1=
EXTT2=
EXTT3=
EXTT4=
EXTT5=
EXTT6=
EXTT7=
EXTT8=
EXTT9=
EXTT10=
EXTT11=
EXTT12=
EXTT13=
EXTT14=
EXTT15=
EXTT16=
EXTT17=
EXTT18=
EXTT19=
PLAYORDER=
